<svg width="1123" height="793" xmlns="http://www.w3.org/2000/svg" xmlns:xlink="http://www.w3.org/1999/xlink" overflow="hidden"><defs><clipPath id="clip0"><rect x="0" y="0" width="1123" height="793"/></clipPath></defs><g clip-path="url(#clip0)"><rect x="0" y="0" width="1123" height="793.431" fill="#FFFFFF"/><path d="M81 36.9734 105 36.9734 105 276.801 81 276.801 81 36.9734Z" fill="#666600" fill-rule="evenodd"/><path d="M81 276.801 105 276.801 105 516.629 81 516.629 81 276.801Z" fill="#CCCC66" fill-rule="evenodd"/><path d="M81 516.629 105 516.629 105 756.457 81 756.457 81 516.629Z" fill="#999900" fill-rule="evenodd"/><path d="M129 188.865 1034 188.865" stroke="#999900" stroke-width="2.08062" stroke-linejoin="round" stroke-miterlimit="10" fill="none" fill-rule="evenodd"/><text fill="#999900" font-family="MS PGothic,MS PGothic_MSFontService,sans-serif" font-weight="400" font-size="59" transform="matrix(1 0 0 0.999283 137.427 165)">主成分分析</text><path d="M0.49979-1.55948e-07 0.499893 329.663-0.499687 329.663-0.49979 1.55948e-07ZM3.99842 328.329 0.000104943 336.326-3.99822 328.329Z" transform="matrix(1.00072 0 0 -1 248.5 661.593)"/><path d="M0.49979-1.55948e-07 0.499893 329.663-0.499687 329.663-0.49979 1.55948e-07ZM3.99842 328.329 0.000104943 336.326-3.99822 328.329Z" transform="matrix(6.12763e-17 1 1.00072 -6.12323e-17 208.5 622.054)"/><path d="M241.5 351.248 254.699 351.248" stroke="#000000" stroke-width="1.0003" stroke-linejoin="round" stroke-miterlimit="10" fill="none" fill-rule="evenodd"/><path d="M241.5 419.199 254.699 419.199" stroke="#000000" stroke-width="1.0003" stroke-linejoin="round" stroke-miterlimit="10" fill="none" fill-rule="evenodd"/><path d="M241.5 486.151 254.699 486.151" stroke="#000000" stroke-width="1.0003" stroke-linejoin="round" stroke-miterlimit="10" fill="none" fill-rule="evenodd"/><path d="M241.5 554.103 254.699 554.103" stroke="#000000" stroke-width="1.0003" stroke-linejoin="round" stroke-miterlimit="10" fill="none" fill-rule="evenodd"/><path d="M315.5 615.059 315.5 628.248" stroke="#000000" stroke-width="0.99958" stroke-linejoin="round" stroke-miterlimit="10" fill="none" fill-rule="evenodd"/><path d="M383.5 615.059 383.5 628.248" stroke="#000000" stroke-width="0.99958" stroke-linejoin="round" stroke-miterlimit="10" fill="none" fill-rule="evenodd"/><path d="M451.5 615.059 451.5 628.248" stroke="#000000" stroke-width="0.99958" stroke-linejoin="round" stroke-miterlimit="10" fill="none" fill-rule="evenodd"/><path d="M518.5 615.059 518.5 628.248" stroke="#000000" stroke-width="0.99958" stroke-linejoin="round" stroke-miterlimit="10" fill="none" fill-rule="evenodd"/><path d="M235 642.291C235 637.667 232.081 634.545 227.951 634.545 222.058 634.545 216 641.135 216 647.841 216 652.581 219.084 655.53 223.049 655.53 228.832 655.53 235 649.228 235 642.291ZM223.214 654.778C220.461 654.778 218.533 652.408 218.533 648.65 218.533 647.379 218.919 643.158 221.067 639.805 222.939 636.799 225.638 635.296 227.786 635.296 230.044 635.296 232.522 636.915 232.522 641.193 232.522 643.274 231.806 647.783 229.052 651.31 227.73 653.044 225.472 654.778 223.214 654.778" fill="#4D4D4D" fill-rule="evenodd"/><path d="M530.325 640.567C530.47 639.82 531.048 637.176 532.735 637.176 532.831 637.176 533.41 637.176 533.94 637.521 533.265 637.693 532.783 638.383 532.783 639.073 532.783 639.532 533.024 640.107 533.699 640.107 534.229 640.107 535 639.59 535 638.44 535 636.946 533.554 636.543 532.735 636.543 531.337 636.543 530.518 638.038 530.229 638.728 529.602 636.831 528.301 636.543 527.626 636.543 525.12 636.543 523.723 640.222 523.723 640.969 523.723 641.257 523.964 641.257 524.012 641.257 524.205 641.257 524.301 641.199 524.349 640.912 525.169 637.865 526.759 637.176 527.578 637.176 528.012 637.176 528.879 637.406 528.879 639.073 528.879 639.992 528.446 641.889 527.578 645.913 527.193 647.695 526.325 648.902 525.265 648.902 525.12 648.902 524.59 648.902 524.06 648.557 524.687 648.384 525.217 647.81 525.217 647.005 525.217 646.2 524.687 645.97 524.301 645.97 523.578 645.97 523 646.717 523 647.637 523 648.959 524.205 649.534 525.265 649.534 526.855 649.534 527.723 647.522 527.771 647.35 528.06 648.442 528.928 649.534 530.373 649.534 532.879 649.534 534.229 645.855 534.229 645.108 534.229 644.821 534.036 644.821 533.94 644.821 533.747 644.821 533.699 644.936 533.651 645.165 532.831 648.212 531.193 648.902 530.422 648.902 529.506 648.902 529.12 647.982 529.12 647.005 529.12 646.373 529.265 645.74 529.506 644.476L530.325 640.567" fill="#4D4D4D" fill-rule="evenodd"/><path d="M542.299 641.1C542.299 640.541 542.299 640.541 541.748 640.541 540.535 641.772 538.772 641.772 538 641.772L538 642.5C538.441 642.5 539.709 642.5 540.756 641.94L540.756 651.907C540.756 652.579 540.756 652.803 538.827 652.803L538.11 652.803 538.11 653.531C538.441 653.475 540.811 653.419 541.528 653.419 542.134 653.419 544.559 653.475 545 653.531L545 652.803 544.228 652.803C542.299 652.803 542.299 652.579 542.299 651.907L542.299 641.1" fill="#4D4D4D" fill-rule="evenodd"/><path d="M217.968 328.481C218.125 327.791 218.702 325.351 220.536 325.351 220.694 325.351 221.323 325.351 221.847 325.669 221.113 325.828 220.589 326.465 220.589 327.102 220.589 327.526 220.903 328.057 221.585 328.057 222.161 328.057 223 327.579 223 326.518 223 325.138 221.48 324.767 220.589 324.767 219.069 324.767 218.177 326.147 217.863 326.783 217.181 325.032 215.766 324.767 215.032 324.767 212.306 324.767 210.786 328.163 210.786 328.853 210.786 329.118 211.048 329.118 211.101 329.118 211.31 329.118 211.415 329.065 211.468 328.799 212.359 325.987 214.089 325.351 214.98 325.351 215.452 325.351 216.395 325.563 216.395 327.102 216.395 327.951 215.923 329.702 214.98 333.416 214.56 335.06 213.617 336.175 212.464 336.175 212.306 336.175 211.73 336.175 211.153 335.856 211.835 335.697 212.411 335.167 212.411 334.424 212.411 333.681 211.835 333.469 211.415 333.469 210.629 333.469 210 334.158 210 335.007 210 336.228 211.31 336.758 212.464 336.758 214.194 336.758 215.137 334.901 215.19 334.742 215.504 335.75 216.448 336.758 218.02 336.758 220.694 336.758 222.214 333.363 222.214 332.673 222.214 332.408 221.952 332.408 221.899 332.408 221.637 332.408 221.585 332.514 221.532 332.726 220.694 335.538 218.911 336.175 218.073 336.175 217.077 336.175 216.657 335.326 216.657 334.424 216.657 333.84 216.815 333.256 217.077 332.089L217.968 328.481" fill="#4D4D4D" fill-rule="evenodd"/><path d="M233 337.172 232.377 337.172C232.325 337.62 232.169 338.74 231.909 338.964 231.805 339.076 230.403 339.076 230.143 339.076L226.818 339.076C228.688 337.228 229.312 336.724 230.403 335.772 231.753 334.652 233 333.42 233 331.573 233 329.221 231.078 327.765 228.792 327.765 226.507 327.765 225 329.445 225 331.237 225 332.244 225.779 332.356 225.987 332.356 226.403 332.356 226.922 332.02 226.922 331.293 226.922 330.957 226.818 330.285 225.883 330.285 226.403 328.885 227.649 328.437 228.481 328.437 230.299 328.437 231.234 330.005 231.234 331.573 231.234 333.252 230.143 334.596 229.571 335.324L225.208 339.972C225 340.14 225 340.196 225 340.756L232.48 340.756 233 337.172" fill="#4D4D4D" fill-rule="evenodd"/><path d="M519.5 392.219 532.42 415.757" stroke="#999900" stroke-width="1.33373" stroke-linejoin="round" stroke-miterlimit="10" fill="none" fill-rule="evenodd"/><path d="M513.5 426.194 524.976 447.102" stroke="#999900" stroke-width="1.33373" stroke-linejoin="round" stroke-miterlimit="10" fill="none" fill-rule="evenodd"/><path d="M481.5 428.193 487.835 439.734" stroke="#999900" stroke-width="1.33373" stroke-linejoin="round" stroke-miterlimit="10" fill="none" fill-rule="evenodd"/><path d="M473.5 448.178 481.162 462.137" stroke="#999900" stroke-width="1.33373" stroke-linejoin="round" stroke-miterlimit="10" fill="none" fill-rule="evenodd"/><path d="M383.5 478.157 391.336 492.432" stroke="#999900" stroke-width="1.33373" stroke-linejoin="round" stroke-miterlimit="10" fill="none" fill-rule="evenodd"/><path d="M427.5 472.161 433.379 482.872" stroke="#999900" stroke-width="1.33373" stroke-linejoin="round" stroke-miterlimit="10" fill="none" fill-rule="evenodd"/><path d="M342.5 491.148 354.337 512.712" stroke="#999900" stroke-width="1.33373" stroke-linejoin="round" stroke-miterlimit="10" fill="none" fill-rule="evenodd"/><path d="M328.5 527.122 341.923 551.577" stroke="#999900" stroke-width="1.33373" stroke-linejoin="round" stroke-miterlimit="10" fill="none" fill-rule="evenodd"/><path d="M309.5 523.125 315.919 534.819" stroke="#999900" stroke-width="1.33373" stroke-linejoin="round" stroke-miterlimit="10" fill="none" fill-rule="evenodd"/><path d="M279.5 554.103 283.184 560.815" stroke="#999900" stroke-width="1.33373" stroke-linejoin="round" stroke-miterlimit="10" fill="none" fill-rule="evenodd"/><path d="M0 0 330.195 181.114" stroke="#000000" stroke-width="1.33277" stroke-linejoin="round" stroke-miterlimit="10" fill="none" fill-rule="evenodd" transform="matrix(1.00072 0 0 -1 223.5 584.325)"/><path d="M0 4.49675C-5.72502e-16 2.01326 2.01328 -5.72496e-16 4.4968-1.14499e-15 6.98031-2.28998e-15 8.9936 2.01326 8.9936 4.49675 8.9936 6.98023 6.98031 8.99349 4.4968 8.99349 2.01328 8.99349-2.86251e-15 6.98023 0 4.49675Z" stroke="#000000" stroke-width="1.33277" stroke-linejoin="round" stroke-miterlimit="10" fill-rule="evenodd" transform="matrix(-1.83829e-16 -1 -1.00072 1.83697e-16 521.5 392.219)"/><path d="M0 4.4968C-5.72502e-16 2.01328 2.01328 -5.72502e-16 4.4968-1.145e-15 6.98031-2.29001e-15 8.9936 2.01328 8.9936 4.4968 8.9936 6.98031 6.98031 8.9936 4.4968 8.9936 2.01328 8.9936-2.86251e-15 6.98031 0 4.4968Z" stroke="#000000" stroke-width="1.33277" stroke-linejoin="round" stroke-miterlimit="10" fill-rule="evenodd" transform="matrix(-1.83829e-16 -1 -1.00072 1.83697e-16 531.5 455.173)"/><path d="M0 4.4968C-5.72502e-16 2.01328 2.01328 -5.72502e-16 4.4968-1.145e-15 6.98031-2.29001e-15 8.9936 2.01328 8.9936 4.4968 8.9936 6.98031 6.98031 8.9936 4.4968 8.9936 2.01328 8.9936-2.86251e-15 6.98031 0 4.4968Z" stroke="#000000" stroke-width="1.33277" stroke-linejoin="round" stroke-miterlimit="10" fill-rule="evenodd" transform="matrix(-1.83829e-16 -1 -1.00072 1.83697e-16 483.5 428.193)"/><path d="M0 4.49675C-5.72496e-16 2.01326 2.01326 -5.72496e-16 4.49675-1.14499e-15 6.98023-2.28998e-15 8.99349 2.01326 8.99349 4.49675 8.99349 6.98023 6.98023 8.99349 4.49675 8.99349 2.01326 8.99349-2.86248e-15 6.98023 0 4.49675Z" stroke="#000000" stroke-width="1.33277" stroke-linejoin="round" stroke-miterlimit="10" fill-rule="evenodd" transform="matrix(-1.83829e-16 -1 -1.00072 1.83697e-16 487.5 470.163)"/><path d="M0 4.49675C-5.72502e-16 2.01326 2.01328 -5.72496e-16 4.4968-1.14499e-15 6.98031-2.28998e-15 8.9936 2.01326 8.9936 4.49675 8.9936 6.98023 6.98031 8.99349 4.4968 8.99349 2.01328 8.99349-2.86251e-15 6.98023 0 4.49675Z" stroke="#000000" stroke-width="1.33277" stroke-linejoin="round" stroke-miterlimit="10" fill-rule="evenodd" transform="matrix(-1.83829e-16 -1 -1.00072 1.83697e-16 440.5 491.148)"/><path d="M0 4.4968C-5.72502e-16 2.01328 2.01328 -5.72502e-16 4.4968-1.145e-15 6.98031-2.29001e-15 8.9936 2.01328 8.9936 4.4968 8.9936 6.98031 6.98031 8.9936 4.4968 8.9936 2.01328 8.9936-2.86251e-15 6.98031 0 4.4968Z" stroke="#000000" stroke-width="1.33277" stroke-linejoin="round" stroke-miterlimit="10" fill-rule="evenodd" transform="matrix(-1.83829e-16 -1 -1.00072 1.83697e-16 385.5 478.157)"/><path d="M0 4.4968C-5.72502e-16 2.01328 2.01328 -5.72502e-16 4.4968-1.145e-15 6.98031-2.29001e-15 8.9936 2.01328 8.9936 4.4968 8.9936 6.98031 6.98031 8.9936 4.4968 8.9936 2.01328 8.9936-2.86251e-15 6.98031 0 4.4968Z" stroke="#000000" stroke-width="1.33277" stroke-linejoin="round" stroke-miterlimit="10" fill-rule="evenodd" transform="matrix(-1.83829e-16 -1 -1.00072 1.83697e-16 344.5 491.148)"/><path d="M0 4.4968C-5.72496e-16 2.01328 2.01326 -5.72502e-16 4.49675-1.145e-15 6.98023-2.29001e-15 8.99349 2.01328 8.99349 4.4968 8.99349 6.98031 6.98023 8.9936 4.49675 8.9936 2.01326 8.9936-2.86248e-15 6.98031 0 4.4968Z" stroke="#000000" stroke-width="1.33277" stroke-linejoin="round" stroke-miterlimit="10" fill-rule="evenodd" transform="matrix(-1.83829e-16 -1 -1.00072 1.83697e-16 311.5 523.125)"/><path d="M0 4.49675C-6.36112e-16 2.01326 2.23698 -5.72496e-16 4.99643-1.14499e-15 7.75588-2.28998e-15 9.99286 2.01326 9.99286 4.49675 9.99286 6.98023 7.75588 8.99349 4.99643 8.99349 2.23698 8.99349-3.18056e-15 6.98023 0 4.49675Z" stroke="#000000" stroke-width="1.33277" stroke-linejoin="round" stroke-miterlimit="10" fill-rule="evenodd" transform="matrix(-1.83829e-16 -1 -1.00072 1.83697e-16 348.5 560.098)"/><path d="M0 4.49675C-5.72496e-16 2.01326 2.01326 -5.72496e-16 4.49675-1.14499e-15 6.98023-2.28998e-15 8.99349 2.01326 8.99349 4.49675 8.99349 6.98023 6.98023 8.99349 4.49675 8.99349 2.01326 8.99349-2.86248e-15 6.98023 0 4.49675Z" stroke="#000000" stroke-width="1.33277" stroke-linejoin="round" stroke-miterlimit="10" fill-rule="evenodd" transform="matrix(-1.83829e-16 -1 -1.00072 1.83697e-16 290.5 569.092)"/><path d="M0 4.4968C-5.72496e-16 2.01328 2.01326 -5.72502e-16 4.49675-1.145e-15 6.98023-2.29001e-15 8.99349 2.01328 8.99349 4.4968 8.99349 6.98031 6.98023 8.9936 4.49675 8.9936 2.01326 8.9936-2.86248e-15 6.98031 0 4.4968Z" stroke="#999900" stroke-width="1.33277" stroke-linejoin="round" stroke-miterlimit="10" fill="#999900" fill-rule="evenodd" transform="matrix(-1.83829e-16 -1 -1.00072 1.83697e-16 537.5 419.199)"/><path d="M0 4.49675C-5.72496e-16 2.01326 2.01326 -5.72496e-16 4.49675-1.14499e-15 6.98023-2.28998e-15 8.99349 2.01326 8.99349 4.49675 8.99349 6.98023 6.98023 8.99349 4.49675 8.99349 2.01326 8.99349-2.86248e-15 6.98023 0 4.49675Z" stroke="#999900" stroke-width="1.33277" stroke-linejoin="round" stroke-miterlimit="10" fill="#999900" fill-rule="evenodd" transform="matrix(-1.83829e-16 -1 -1.00072 1.83697e-16 517.5 430.191)"/><path d="M0 4.49675C-5.72502e-16 2.01326 2.01328 -5.72496e-16 4.4968-1.14499e-15 6.98031-2.28998e-15 8.9936 2.01326 8.9936 4.49675 8.9936 6.98023 6.98031 8.99349 4.4968 8.99349 2.01328 8.99349-2.86251e-15 6.98023 0 4.49675Z" stroke="#999900" stroke-width="1.33277" stroke-linejoin="round" stroke-miterlimit="10" fill="#999900" fill-rule="evenodd" transform="matrix(-1.83829e-16 -1 -1.00072 1.83697e-16 492.5 444.181)"/><path d="M0 4.49675C-5.72502e-16 2.01326 2.01328 -5.72496e-16 4.4968-1.14499e-15 6.98031-2.28998e-15 8.9936 2.01326 8.9936 4.49675 8.9936 6.98023 6.98031 8.99349 4.4968 8.99349 2.01328 8.99349-2.86251e-15 6.98023 0 4.49675Z" stroke="#999900" stroke-width="1.33277" stroke-linejoin="round" stroke-miterlimit="10" fill="#999900" fill-rule="evenodd" transform="matrix(-1.83829e-16 -1 -1.00072 1.83697e-16 477.5 451.176)"/><path d="M0 4.4968C-5.72496e-16 2.01328 2.01326 -5.72502e-16 4.49675-1.145e-15 6.98023-2.29001e-15 8.99349 2.01328 8.99349 4.4968 8.99349 6.98031 6.98023 8.9936 4.49675 8.9936 2.01326 8.9936-2.86248e-15 6.98031 0 4.4968Z" stroke="#999900" stroke-width="1.33277" stroke-linejoin="round" stroke-miterlimit="10" fill="#999900" fill-rule="evenodd" transform="matrix(-1.83829e-16 -1 -1.00072 1.83697e-16 431.5 477.158)"/><path d="M0 4.49675C-5.72502e-16 2.01326 2.01328 -5.72496e-16 4.4968-1.14499e-15 6.98031-2.28998e-15 8.9936 2.01326 8.9936 4.49675 8.9936 6.98023 6.98031 8.99349 4.4968 8.99349 2.01328 8.99349-2.86251e-15 6.98023 0 4.49675Z" stroke="#999900" stroke-width="1.33277" stroke-linejoin="round" stroke-miterlimit="10" fill="#999900" fill-rule="evenodd" transform="matrix(-1.83829e-16 -1 -1.00072 1.83697e-16 396.5 496.144)"/><path d="M0 4.4968C-5.72496e-16 2.01328 2.01326 -5.72502e-16 4.49675-1.145e-15 6.98023-2.29001e-15 8.99349 2.01328 8.99349 4.4968 8.99349 6.98031 6.98023 8.9936 4.49675 8.9936 2.01326 8.9936-2.86248e-15 6.98031 0 4.4968Z" stroke="#999900" stroke-width="1.33277" stroke-linejoin="round" stroke-miterlimit="10" fill="#999900" fill-rule="evenodd" transform="matrix(-1.83829e-16 -1 -1.00072 1.83697e-16 358.5 517.129)"/><path d="M0 4.49675C-6.36112e-16 2.01326 2.23698 -5.72496e-16 4.99643-1.14499e-15 7.75588-2.28998e-15 9.99286 2.01326 9.99286 4.49675 9.99286 6.98023 7.75588 8.99349 4.99643 8.99349 2.23698 8.99349-3.18056e-15 6.98023 0 4.49675Z" stroke="#999900" stroke-width="1.33277" stroke-linejoin="round" stroke-miterlimit="10" fill="#999900" fill-rule="evenodd" transform="matrix(-1.83829e-16 -1 -1.00072 1.83697e-16 332.5 532.118)"/><path d="M0 4.49675C-5.72502e-16 2.01326 2.01328 -5.72496e-16 4.4968-1.14499e-15 6.98031-2.28998e-15 8.9936 2.01326 8.9936 4.49675 8.9936 6.98023 6.98031 8.99349 4.4968 8.99349 2.01328 8.99349-2.86251e-15 6.98023 0 4.49675Z" stroke="#999900" stroke-width="1.33277" stroke-linejoin="round" stroke-miterlimit="10" fill="#999900" fill-rule="evenodd" transform="matrix(-1.83829e-16 -1 -1.00072 1.83697e-16 319.5 538.114)"/><path d="M0 4.4968C-5.72502e-16 2.01328 2.01328 -5.72502e-16 4.4968-1.145e-15 6.98031-2.29001e-15 8.9936 2.01328 8.9936 4.4968 8.9936 6.98031 6.98031 8.9936 4.4968 8.9936 2.01328 8.9936-2.86251e-15 6.98031 0 4.4968Z" stroke="#999900" stroke-width="1.33277" stroke-linejoin="round" stroke-miterlimit="10" fill="#999900" fill-rule="evenodd" transform="matrix(-1.83829e-16 -1 -1.00072 1.83697e-16 283.5 559.099)"/><path d="M0.320527-0.584363 324.726 177.354 324.085 178.523-0.320527 0.584363ZM325.16 173.791 330.249 181.144 321.314 180.804Z" transform="matrix(0.877631 0.480143 0.480488 -0.877002 642.693 477.783)"/><path d="M0 4.5486C-5.79091e-16 2.03648 2.03646 -5.79098e-16 4.54855-1.1582e-15 7.06065-2.31639e-15 9.0971 2.03648 9.0971 4.5486 9.0971 7.06073 7.06065 9.09721 4.54855 9.09721 2.03646 9.09721-2.89546e-15 7.06073 0 4.5486Z" stroke="#999900" stroke-width="1.33299" stroke-linejoin="round" stroke-miterlimit="10" fill="#999900" fill-rule="evenodd" transform="matrix(0.480487 -0.877002 -0.877631 -0.480143 997.141 484.25)"/><path d="M0 4.5486C-5.79091e-16 2.03648 2.03646 -5.79098e-16 4.54855-1.1582e-15 7.06065-2.31639e-15 9.0971 2.03648 9.0971 4.5486 9.0971 7.06073 7.06065 9.09721 4.54855 9.09721 2.03646 9.09721-2.89546e-15 7.06073 0 4.5486Z" stroke="#999900" stroke-width="1.33299" stroke-linejoin="round" stroke-miterlimit="10" fill="#999900" fill-rule="evenodd" transform="matrix(0.480487 -0.877002 -0.877631 -0.480143 974.561 484.25)"/><path d="M0 4.5486C-5.79091e-16 2.03648 2.03646 -5.79098e-16 4.54855-1.1582e-15 7.06065-2.31639e-15 9.0971 2.03648 9.0971 4.5486 9.0971 7.06073 7.06065 9.09721 4.54855 9.09721 2.03646 9.09721-2.89546e-15 7.06073 0 4.5486Z" stroke="#999900" stroke-width="1.33299" stroke-linejoin="round" stroke-miterlimit="10" fill="#999900" fill-rule="evenodd" transform="matrix(0.480487 -0.877002 -0.877631 -0.480143 946.24 484.25)"/><path d="M0 4.5486C-5.79091e-16 2.03648 2.03646 -5.79098e-16 4.54855-1.1582e-15 7.06065-2.31639e-15 9.0971 2.03648 9.0971 4.5486 9.0971 7.06073 7.06065 9.09721 4.54855 9.09721 2.03646 9.09721-2.89546e-15 7.06073 0 4.5486Z" stroke="#999900" stroke-width="1.33299" stroke-linejoin="round" stroke-miterlimit="10" fill="#999900" fill-rule="evenodd" transform="matrix(0.480487 -0.877002 -0.877631 -0.480143 929.648 484.25)"/><path d="M0 4.5486C-5.79091e-16 2.03648 2.03646 -5.79098e-16 4.54855-1.1582e-15 7.06065-2.31639e-15 9.0971 2.03648 9.0971 4.5486 9.0971 7.06073 7.06065 9.09721 4.54855 9.09721 2.03646 9.09721-2.89546e-15 7.06073 0 4.5486Z" stroke="#999900" stroke-width="1.33299" stroke-linejoin="round" stroke-miterlimit="10" fill="#999900" fill-rule="evenodd" transform="matrix(0.480487 -0.877002 -0.877631 -0.480143 876.867 484.25)"/><path d="M0 4.5486C-5.79091e-16 2.03648 2.03646 -5.79098e-16 4.54855-1.1582e-15 7.06065-2.31639e-15 9.0971 2.03648 9.0971 4.5486 9.0971 7.06073 7.06065 9.09721 4.54855 9.09721 2.03646 9.09721-2.89546e-15 7.06073 0 4.5486Z" stroke="#999900" stroke-width="1.33299" stroke-linejoin="round" stroke-miterlimit="10" fill="#999900" fill-rule="evenodd" transform="matrix(0.480487 -0.877002 -0.877631 -0.480143 836.439 484.25)"/><path d="M0 4.5486C-5.79091e-16 2.03648 2.03646 -5.79098e-16 4.54855-1.1582e-15 7.06065-2.31639e-15 9.0971 2.03648 9.0971 4.5486 9.0971 7.06073 7.06065 9.09721 4.54855 9.09721 2.03646 9.09721-2.89546e-15 7.06073 0 4.5486Z" stroke="#999900" stroke-width="1.33299" stroke-linejoin="round" stroke-miterlimit="10" fill="#999900" fill-rule="evenodd" transform="matrix(0.480487 -0.877002 -0.877631 -0.480143 793.821 484.25)"/><path d="M0 4.5486C-5.79091e-16 2.03648 2.03646 -5.79098e-16 4.54855-1.1582e-15 7.06065-2.31639e-15 9.0971 2.03648 9.0971 4.5486 9.0971 7.06073 7.06065 9.09721 4.54855 9.09721 2.03646 9.09721-2.89546e-15 7.06073 0 4.5486Z" stroke="#999900" stroke-width="1.33299" stroke-linejoin="round" stroke-miterlimit="10" fill="#999900" fill-rule="evenodd" transform="matrix(0.480487 -0.877002 -0.877631 -0.480143 763.571 484.25)"/><path d="M0 4.5486C-5.79091e-16 2.03648 2.03646 -5.79098e-16 4.54855-1.1582e-15 7.06065-2.31639e-15 9.0971 2.03648 9.0971 4.5486 9.0971 7.06073 7.06065 9.09721 4.54855 9.09721 2.03646 9.09721-2.89546e-15 7.06073 0 4.5486Z" stroke="#999900" stroke-width="1.33299" stroke-linejoin="round" stroke-miterlimit="10" fill="#999900" fill-rule="evenodd" transform="matrix(0.480487 -0.877002 -0.877631 -0.480143 749.127 484.25)"/><path d="M0 4.5486C-5.79091e-16 2.03648 2.03646 -5.79098e-16 4.54855-1.1582e-15 7.06065-2.31639e-15 9.0971 2.03648 9.0971 4.5486 9.0971 7.06073 7.06065 9.09721 4.54855 9.09721 2.03646 9.09721-2.89546e-15 7.06073 0 4.5486Z" stroke="#999900" stroke-width="1.33299" stroke-linejoin="round" stroke-miterlimit="10" fill="#999900" fill-rule="evenodd" transform="matrix(0.480487 -0.877002 -0.877631 -0.480143 707.78 484.25)"/><path d="M587 467.165 606 467.165 606 456.672 625 477.657 606 498.642 606 488.15 587 488.15Z" fill="#999900" fill-rule="evenodd"/><path d="M1001.94 496.67C1002.09 495.923 1002.72 493.279 1004.55 493.279 1004.65 493.279 1005.28 493.279 1005.85 493.624 1005.12 493.796 1004.6 494.486 1004.6 495.176 1004.6 495.636 1004.86 496.21 1005.59 496.21 1006.16 496.21 1007 495.693 1007 494.543 1007 493.049 1005.43 492.647 1004.55 492.647 1003.03 492.647 1002.14 494.141 1001.83 494.831 1001.15 492.934 999.743 492.647 999.012 492.647 996.297 492.647 994.783 496.325 994.783 497.073 994.783 497.36 995.044 497.36 995.096 497.36 995.305 497.36 995.41 497.303 995.462 497.015 996.349 493.969 998.072 493.279 998.96 493.279 999.43 493.279 1000.37 493.509 1000.37 495.176 1000.37 496.095 999.9 497.992 998.96 502.016 998.542 503.798 997.602 505.005 996.454 505.005 996.297 505.005 995.723 505.005 995.149 504.66 995.827 504.488 996.402 503.913 996.402 503.108 996.402 502.303 995.827 502.073 995.41 502.073 994.627 502.073 994 502.821 994 503.74 994 505.062 995.305 505.637 996.454 505.637 998.177 505.637 999.116 503.625 999.169 503.453 999.482 504.545 1000.42 505.637 1001.99 505.637 1004.7 505.637 1006.16 501.958 1006.16 501.211 1006.16 500.924 1005.96 500.924 1005.85 500.924 1005.64 500.924 1005.59 501.039 1005.54 501.269 1004.65 504.315 1002.88 505.005 1002.04 505.005 1001.05 505.005 1000.63 504.085 1000.63 503.108 1000.63 502.476 1000.79 501.844 1001.05 500.579L1001.94 496.67" fill="#4D4D4D" fill-rule="evenodd"/><path d="M1013.3 502.921C1014.81 502.921 1015.93 503.958 1015.93 505.977 1015.93 508.324 1014.48 509.034 1013.36 509.034 1012.58 509.034 1010.9 508.816 1010.06 507.724 1010.96 507.669 1011.18 507.069 1011.18 506.632 1011.18 506.032 1010.73 505.595 1010.12 505.595 1009.56 505.595 1009 505.923 1009 506.687 1009 508.488 1011.07 509.634 1013.42 509.634 1016.1 509.634 1018 507.888 1018 505.977 1018 504.504 1016.77 503.03 1014.59 502.593 1016.66 501.829 1017.39 500.41 1017.39 499.264 1017.39 497.735 1015.6 496.644 1013.47 496.644 1011.29 496.644 1009.61 497.626 1009.61 499.155 1009.61 499.81 1010.06 500.192 1010.62 500.192 1011.24 500.192 1011.63 499.755 1011.63 499.209 1011.63 498.663 1011.24 498.281 1010.62 498.227 1011.35 497.408 1012.69 497.19 1013.42 497.19 1014.25 497.19 1015.48 497.572 1015.48 499.264 1015.48 500.028 1015.2 500.901 1014.7 501.502 1014.09 502.266 1013.53 502.266 1012.58 502.32 1012.07 502.375 1012.02 502.375 1011.91 502.375 1011.91 502.375 1011.74 502.43 1011.74 502.648 1011.74 502.921 1011.91 502.921 1012.24 502.921L1013.3 502.921" fill="#4D4D4D" fill-rule="evenodd"/></g></svg>