<svg height="283.664pt" version="1.1" viewBox="0 0 283.664 283.664" width="283.664pt" xmlns="http://www.w3.org/2000/svg" xmlns:xlink="http://www.w3.org/1999/xlink">
<g id="surface1">
<path d="M 0.0015625 0.0015 L 283.466406 0.0015 M 0.0015625 56.692906 L 283.466406 56.692906 M 0.0015625 113.388219 L 283.466406 113.388219 M 0.0015625 170.079625 L 283.466406 170.079625 M 0.0015625 226.774938 L 283.466406 226.774938 M 0.0015625 283.446813 L 283.466406 283.446813 M 0.0015625 0.0015 L 0.0015625 283.466344 M 56.692969 0.0015 L 56.692969 283.466344 M 113.388281 0.0015 L 113.388281 283.466344 M 170.079688 0.0015 L 170.079688 283.466344 M 226.775 0.0015 L 226.775 283.466344 M 283.446875 0.0015 L 283.446875 283.466344 " style="fill:none;stroke-width:0.19925;stroke-linecap:butt;stroke-linejoin:miter;stroke:rgb(50%,50%,50%);stroke-opacity:1;stroke-miterlimit:10;" transform="matrix(1,0,0,-1,0.1,283.564)"/>
<path d="M 56.692969 56.692906 L 56.692969 113.388219 L 113.388281 113.388219 L 113.388281 56.692906 Z M 56.692969 56.692906 " style="fill-rule:nonzero;fill:rgb(99.253845%,90.000916%,95.489502%);fill-opacity:1;stroke-width:0.3985;stroke-linecap:butt;stroke-linejoin:miter;stroke:rgb(0%,0%,0%);stroke-opacity:1;stroke-miterlimit:10;" transform="matrix(1,0,0,-1,0.1,283.564)"/>
<path d="M 113.388281 56.692906 L 113.388281 113.388219 L 170.079688 113.388219 L 170.079688 56.692906 Z M 113.388281 56.692906 " style="fill-rule:nonzero;fill:rgb(99.253845%,90.000916%,95.489502%);fill-opacity:1;stroke-width:0.3985;stroke-linecap:butt;stroke-linejoin:miter;stroke:rgb(0%,0%,0%);stroke-opacity:1;stroke-miterlimit:10;" transform="matrix(1,0,0,-1,0.1,283.564)"/>
<path d="M 170.079688 56.692906 L 170.079688 113.388219 L 226.775 113.388219 L 226.775 56.692906 Z M 170.079688 56.692906 " style="fill-rule:nonzero;fill:rgb(99.253845%,90.000916%,95.489502%);fill-opacity:1;stroke-width:0.3985;stroke-linecap:butt;stroke-linejoin:miter;stroke:rgb(0%,0%,0%);stroke-opacity:1;stroke-miterlimit:10;" transform="matrix(1,0,0,-1,0.1,283.564)"/>
<path d="M 170.079688 113.388219 L 170.079688 170.079625 L 226.775 170.079625 L 226.775 113.388219 Z M 170.079688 113.388219 " style="fill-rule:nonzero;fill:rgb(99.253845%,90.000916%,95.489502%);fill-opacity:1;stroke-width:0.3985;stroke-linecap:butt;stroke-linejoin:miter;stroke:rgb(0%,0%,0%);stroke-opacity:1;stroke-miterlimit:10;" transform="matrix(1,0,0,-1,0.1,283.564)"/>
<path d="M 113.388281 170.079625 L 113.388281 226.774938 L 170.079688 226.774938 L 170.079688 170.079625 Z M 113.388281 170.079625 " style="fill-rule:nonzero;fill:rgb(99.253845%,90.000916%,95.489502%);fill-opacity:1;stroke-width:0.3985;stroke-linecap:butt;stroke-linejoin:miter;stroke:rgb(0%,0%,0%);stroke-opacity:1;stroke-miterlimit:10;" transform="matrix(1,0,0,-1,0.1,283.564)"/>
</g>
</svg>