<svg width="1123" height="793" xmlns="http://www.w3.org/2000/svg" xmlns:xlink="http://www.w3.org/1999/xlink" overflow="hidden"><defs><clipPath id="clip0"><rect x="0" y="0" width="1123" height="793"/></clipPath></defs><g clip-path="url(#clip0)"><rect x="0" y="0" width="1123" height="793.431" fill="#FFFFFF"/><path d="M81 36.9734 105 36.9734 105 276.801 81 276.801 81 36.9734Z" fill="#666600" fill-rule="evenodd"/><path d="M81 276.801 105 276.801 105 516.629 81 516.629 81 276.801Z" fill="#CCCC66" fill-rule="evenodd"/><path d="M81 516.629 105 516.629 105 756.457 81 756.457 81 516.629Z" fill="#999900" fill-rule="evenodd"/><path d="M129 188.865 1034 188.865" stroke="#999900" stroke-width="2.08062" stroke-linejoin="round" stroke-miterlimit="10" fill="none" fill-rule="evenodd"/><text fill="#999900" font-family="MS PGothic,MS PGothic_MSFontService,sans-serif" font-weight="400" font-size="59" transform="matrix(1 0 0 0.999283 137.427 165)">主成分分析</text><path d="M0.49979-1.55948e-07 0.499893 329.663-0.499687 329.663-0.49979 1.55948e-07ZM3.99842 328.329 0.000104943 336.326-3.99822 328.329Z" transform="matrix(1.00072 0 0 -1 248.5 661.593)"/><path d="M0.49979-1.55948e-07 0.499893 329.663-0.499687 329.663-0.49979 1.55948e-07ZM3.99842 328.329 0.000104943 336.326-3.99822 328.329Z" transform="matrix(6.12763e-17 1 1.00072 -6.12323e-17 208.5 622.054)"/><path d="M241.5 351.248 254.699 351.248" stroke="#000000" stroke-width="1.0003" stroke-linejoin="round" stroke-miterlimit="10" fill="none" fill-rule="evenodd"/><path d="M241.5 419.199 254.699 419.199" stroke="#000000" stroke-width="1.0003" stroke-linejoin="round" stroke-miterlimit="10" fill="none" fill-rule="evenodd"/><path d="M241.5 486.151 254.699 486.151" stroke="#000000" stroke-width="1.0003" stroke-linejoin="round" stroke-miterlimit="10" fill="none" fill-rule="evenodd"/><path d="M241.5 554.103 254.699 554.103" stroke="#000000" stroke-width="1.0003" stroke-linejoin="round" stroke-miterlimit="10" fill="none" fill-rule="evenodd"/><path d="M315.5 615.059 315.5 628.248" stroke="#000000" stroke-width="0.99958" stroke-linejoin="round" stroke-miterlimit="10" fill="none" fill-rule="evenodd"/><path d="M383.5 615.059 383.5 628.248" stroke="#000000" stroke-width="0.99958" stroke-linejoin="round" stroke-miterlimit="10" fill="none" fill-rule="evenodd"/><path d="M451.5 615.059 451.5 628.248" stroke="#000000" stroke-width="0.99958" stroke-linejoin="round" stroke-miterlimit="10" fill="none" fill-rule="evenodd"/><path d="M518.5 615.059 518.5 628.248" stroke="#000000" stroke-width="0.99958" stroke-linejoin="round" stroke-miterlimit="10" fill="none" fill-rule="evenodd"/><path d="M235 642.291C235 637.667 232.081 634.545 227.951 634.545 222.058 634.545 216 641.135 216 647.841 216 652.581 219.084 655.53 223.049 655.53 228.832 655.53 235 649.228 235 642.291ZM223.214 654.778C220.461 654.778 218.533 652.408 218.533 648.65 218.533 647.379 218.919 643.158 221.067 639.805 222.939 636.799 225.638 635.296 227.786 635.296 230.044 635.296 232.522 636.915 232.522 641.193 232.522 643.274 231.806 647.783 229.052 651.31 227.73 653.044 225.472 654.778 223.214 654.778" fill="#4D4D4D" fill-rule="evenodd"/><path d="M0 4.4968C-5.72496e-16 2.01328 2.01326 -5.72502e-16 4.49675-1.145e-15 6.98023-2.29001e-15 8.99349 2.01328 8.99349 4.4968 8.99349 6.98031 6.98023 8.9936 4.49675 8.9936 2.01326 8.9936-2.86248e-15 6.98031 0 4.4968Z" stroke="#000000" stroke-width="1.33277" stroke-linejoin="round" stroke-miterlimit="10" fill-rule="evenodd" transform="matrix(-1.83829e-16 -1 -1.00072 1.83697e-16 311.5 523.125)"/><path d="M0 4.49675C-5.72496e-16 2.01326 2.01326 -5.72496e-16 4.49675-1.14499e-15 6.98023-2.28998e-15 8.99349 2.01326 8.99349 4.49675 8.99349 6.98023 6.98023 8.99349 4.49675 8.99349 2.01326 8.99349-2.86248e-15 6.98023 0 4.49675Z" stroke="#000000" stroke-width="1.33277" stroke-linejoin="round" stroke-miterlimit="10" fill-rule="evenodd" transform="matrix(-1.83829e-16 -1 -1.00072 1.83697e-16 290.5 569.092)"/><path d="M0 4.49675C-5.72502e-16 2.01326 2.01328 -5.72496e-16 4.4968-1.14499e-15 6.98031-2.28998e-15 8.9936 2.01326 8.9936 4.49675 8.9936 6.98023 6.98031 8.99349 4.4968 8.99349 2.01328 8.99349-2.86251e-15 6.98023 0 4.49675Z" stroke="#000000" stroke-width="1.33277" stroke-linejoin="round" stroke-miterlimit="10" fill-rule="evenodd" transform="matrix(-1.83829e-16 -1 -1.00072 1.83697e-16 440.5 491.148)"/><path d="M0 4.4968C-5.72502e-16 2.01328 2.01328 -5.72502e-16 4.4968-1.145e-15 6.98031-2.29001e-15 8.9936 2.01328 8.9936 4.4968 8.9936 6.98031 6.98031 8.9936 4.4968 8.9936 2.01328 8.9936-2.86251e-15 6.98031 0 4.4968Z" stroke="#000000" stroke-width="1.33277" stroke-linejoin="round" stroke-miterlimit="10" fill-rule="evenodd" transform="matrix(-1.83829e-16 -1 -1.00072 1.83697e-16 344.5 491.148)"/><path d="M530.325 640.567C530.47 639.82 531.048 637.176 532.735 637.176 532.831 637.176 533.41 637.176 533.94 637.521 533.265 637.693 532.783 638.383 532.783 639.073 532.783 639.532 533.024 640.107 533.699 640.107 534.229 640.107 535 639.59 535 638.44 535 636.946 533.554 636.543 532.735 636.543 531.337 636.543 530.518 638.038 530.229 638.728 529.602 636.831 528.301 636.543 527.626 636.543 525.12 636.543 523.723 640.222 523.723 640.969 523.723 641.257 523.964 641.257 524.012 641.257 524.205 641.257 524.301 641.199 524.349 640.912 525.169 637.865 526.759 637.176 527.578 637.176 528.012 637.176 528.879 637.406 528.879 639.073 528.879 639.992 528.446 641.889 527.578 645.913 527.193 647.695 526.325 648.902 525.265 648.902 525.12 648.902 524.59 648.902 524.06 648.557 524.687 648.384 525.217 647.81 525.217 647.005 525.217 646.2 524.687 645.97 524.301 645.97 523.578 645.97 523 646.717 523 647.637 523 648.959 524.205 649.534 525.265 649.534 526.855 649.534 527.723 647.522 527.771 647.35 528.06 648.442 528.928 649.534 530.373 649.534 532.879 649.534 534.229 645.855 534.229 645.108 534.229 644.821 534.036 644.821 533.94 644.821 533.747 644.821 533.699 644.936 533.651 645.165 532.831 648.212 531.193 648.902 530.422 648.902 529.506 648.902 529.12 647.982 529.12 647.005 529.12 646.373 529.265 645.74 529.506 644.476L530.325 640.567" fill="#4D4D4D" fill-rule="evenodd"/><path d="M542.299 641.1C542.299 640.541 542.299 640.541 541.748 640.541 540.535 641.772 538.772 641.772 538 641.772L538 642.5C538.441 642.5 539.709 642.5 540.756 641.94L540.756 651.907C540.756 652.579 540.756 652.803 538.827 652.803L538.11 652.803 538.11 653.531C538.441 653.475 540.811 653.419 541.528 653.419 542.134 653.419 544.559 653.475 545 653.531L545 652.803 544.228 652.803C542.299 652.803 542.299 652.579 542.299 651.907L542.299 641.1" fill="#4D4D4D" fill-rule="evenodd"/><path d="M217.968 328.481C218.125 327.791 218.702 325.351 220.536 325.351 220.694 325.351 221.323 325.351 221.847 325.669 221.113 325.828 220.589 326.465 220.589 327.102 220.589 327.526 220.903 328.057 221.585 328.057 222.161 328.057 223 327.579 223 326.518 223 325.138 221.48 324.767 220.589 324.767 219.069 324.767 218.177 326.147 217.863 326.783 217.181 325.032 215.766 324.767 215.032 324.767 212.306 324.767 210.786 328.163 210.786 328.853 210.786 329.118 211.048 329.118 211.101 329.118 211.31 329.118 211.415 329.065 211.468 328.799 212.359 325.987 214.089 325.351 214.98 325.351 215.452 325.351 216.395 325.563 216.395 327.102 216.395 327.951 215.923 329.702 214.98 333.416 214.56 335.06 213.617 336.175 212.464 336.175 212.306 336.175 211.73 336.175 211.153 335.856 211.835 335.697 212.411 335.167 212.411 334.424 212.411 333.681 211.835 333.469 211.415 333.469 210.629 333.469 210 334.158 210 335.007 210 336.228 211.31 336.758 212.464 336.758 214.194 336.758 215.137 334.901 215.19 334.742 215.504 335.75 216.448 336.758 218.02 336.758 220.694 336.758 222.214 333.363 222.214 332.673 222.214 332.408 221.952 332.408 221.899 332.408 221.637 332.408 221.585 332.514 221.532 332.726 220.694 335.538 218.911 336.175 218.073 336.175 217.077 336.175 216.657 335.326 216.657 334.424 216.657 333.84 216.815 333.256 217.077 332.089L217.968 328.481" fill="#4D4D4D" fill-rule="evenodd"/><path d="M233 337.172 232.377 337.172C232.325 337.62 232.169 338.74 231.909 338.964 231.805 339.076 230.403 339.076 230.143 339.076L226.818 339.076C228.688 337.228 229.312 336.724 230.403 335.772 231.753 334.652 233 333.42 233 331.573 233 329.221 231.078 327.765 228.792 327.765 226.507 327.765 225 329.445 225 331.237 225 332.244 225.779 332.356 225.987 332.356 226.403 332.356 226.922 332.02 226.922 331.293 226.922 330.957 226.818 330.285 225.883 330.285 226.403 328.885 227.649 328.437 228.481 328.437 230.299 328.437 231.234 330.005 231.234 331.573 231.234 333.252 230.143 334.596 229.571 335.324L225.208 339.972C225 340.14 225 340.196 225 340.756L232.48 340.756 233 337.172" fill="#4D4D4D" fill-rule="evenodd"/><path d="M381.5 426.194 436.208 534.863" stroke="#000000" stroke-width="1.33373" stroke-linejoin="round" stroke-miterlimit="10" fill="none" fill-rule="evenodd"/><path d="M0 4.4968C-5.72502e-16 2.01328 2.01328 -5.72502e-16 4.4968-1.145e-15 6.98031-2.29001e-15 8.9936 2.01328 8.9936 4.4968 8.9936 6.98031 6.98031 8.9936 4.4968 8.9936 2.01328 8.9936-2.86251e-15 6.98031 0 4.4968Z" stroke="#000000" stroke-width="1.33277" stroke-linejoin="round" stroke-miterlimit="10" fill-rule="evenodd" transform="matrix(-1.83829e-16 -1 -1.00072 1.83697e-16 483.5 428.193)"/><path d="M0 4.49675C-5.72496e-16 2.01326 2.01326 -5.72496e-16 4.49675-1.14499e-15 6.98023-2.28998e-15 8.99349 2.01326 8.99349 4.49675 8.99349 6.98023 6.98023 8.99349 4.49675 8.99349 2.01326 8.99349-2.86248e-15 6.98023 0 4.49675Z" stroke="#000000" stroke-width="1.33277" stroke-linejoin="round" stroke-miterlimit="10" fill-rule="evenodd" transform="matrix(-1.83829e-16 -1 -1.00072 1.83697e-16 487.5 470.163)"/><path d="M0 4.49675C-5.72502e-16 2.01326 2.01328 -5.72496e-16 4.4968-1.14499e-15 6.98031-2.28998e-15 8.9936 2.01326 8.9936 4.49675 8.9936 6.98023 6.98031 8.99349 4.4968 8.99349 2.01328 8.99349-2.86251e-15 6.98023 0 4.49675Z" stroke="#000000" stroke-width="1.33277" stroke-linejoin="round" stroke-miterlimit="10" fill-rule="evenodd" transform="matrix(-1.83829e-16 -1 -1.00072 1.83697e-16 521.5 392.219)"/><path d="M0 4.4968C-5.72502e-16 2.01328 2.01328 -5.72502e-16 4.4968-1.145e-15 6.98031-2.29001e-15 8.9936 2.01328 8.9936 4.4968 8.9936 6.98031 6.98031 8.9936 4.4968 8.9936 2.01328 8.9936-2.86251e-15 6.98031 0 4.4968Z" stroke="#000000" stroke-width="1.33277" stroke-linejoin="round" stroke-miterlimit="10" fill-rule="evenodd" transform="matrix(-1.83829e-16 -1 -1.00072 1.83697e-16 385.5 478.157)"/><path d="M0 4.49675C-6.36112e-16 2.01326 2.23698 -5.72496e-16 4.99643-1.14499e-15 7.75588-2.28998e-15 9.99286 2.01326 9.99286 4.49675 9.99286 6.98023 7.75588 8.99349 4.99643 8.99349 2.23698 8.99349-3.18056e-15 6.98023 0 4.49675Z" stroke="#000000" stroke-width="1.33277" stroke-linejoin="round" stroke-miterlimit="10" fill-rule="evenodd" transform="matrix(-1.83829e-16 -1 -1.00072 1.83697e-16 348.5 560.098)"/><path d="M0 4.4968C-5.72502e-16 2.01328 2.01328 -5.72502e-16 4.4968-1.145e-15 6.98031-2.29001e-15 8.9936 2.01328 8.9936 4.4968 8.9936 6.98031 6.98031 8.9936 4.4968 8.9936 2.01328 8.9936-2.86251e-15 6.98031 0 4.4968Z" stroke="#000000" stroke-width="1.33277" stroke-linejoin="round" stroke-miterlimit="10" fill-rule="evenodd" transform="matrix(-1.83829e-16 -1 -1.00072 1.83697e-16 531.5 455.173)"/><path d="M699.552 477.406 814.616 477.749 814.612 479.081 699.548 478.739ZM813.292 474.413 821.282 478.435 813.268 482.409Z"/><path d="M0 4.54852C-5.7908e-16 2.03644 2.03642 -5.79087e-16 4.54847-1.15817e-15 7.06051-2.31635e-15 9.09693 2.03644 9.09693 4.54852 9.09693 7.0606 7.06051 9.09704 4.54847 9.09704 2.03642 9.09704-2.8954e-15 7.0606 0 4.54852Z" stroke="#999900" stroke-width="1.33297" stroke-linejoin="round" stroke-miterlimit="10" fill="#999900" fill-rule="evenodd" transform="matrix(-0.892492 -0.452004 -0.452328 0.891852 792.513 476.253)"/><path d="M0 4.54852C-5.7908e-16 2.03644 2.03642 -5.79087e-16 4.54847-1.15817e-15 7.06051-2.31635e-15 9.09693 2.03644 9.09693 4.54852 9.09693 7.0606 7.06051 9.09704 4.54847 9.09704 2.03642 9.09704-2.8954e-15 7.0606 0 4.54852Z" stroke="#999900" stroke-width="1.33297" stroke-linejoin="round" stroke-miterlimit="10" fill="#999900" fill-rule="evenodd" transform="matrix(-0.892492 -0.452004 -0.452328 0.891852 786.337 476.253)"/><path d="M0 4.54852C-5.7908e-16 2.03644 2.03642 -5.79087e-16 4.54847-1.15817e-15 7.06051-2.31635e-15 9.09693 2.03644 9.09693 4.54852 9.09693 7.0606 7.06051 9.09704 4.54847 9.09704 2.03642 9.09704-2.8954e-15 7.0606 0 4.54852Z" stroke="#999900" stroke-width="1.33297" stroke-linejoin="round" stroke-miterlimit="10" fill="#999900" fill-rule="evenodd" transform="matrix(-0.892492 -0.452004 -0.452328 0.891852 785.262 476.253)"/><path d="M0 4.54852C-5.7908e-16 2.03644 2.03642 -5.79087e-16 4.54847-1.15817e-15 7.06051-2.31635e-15 9.09693 2.03644 9.09693 4.54852 9.09693 7.0606 7.06051 9.09704 4.54847 9.09704 2.03642 9.09704-2.8954e-15 7.0606 0 4.54852Z" stroke="#999900" stroke-width="1.33297" stroke-linejoin="round" stroke-miterlimit="10" fill="#999900" fill-rule="evenodd" transform="matrix(-0.892492 -0.452004 -0.452328 0.891852 803.517 476.253)"/><path d="M0 4.54852C-5.7908e-16 2.03644 2.03642 -5.79087e-16 4.54847-1.15817e-15 7.06051-2.31635e-15 9.09693 2.03644 9.09693 4.54852 9.09693 7.0606 7.06051 9.09704 4.54847 9.09704 2.03642 9.09704-2.8954e-15 7.0606 0 4.54852Z" stroke="#999900" stroke-width="1.33297" stroke-linejoin="round" stroke-miterlimit="10" fill="#999900" fill-rule="evenodd" transform="matrix(-0.892492 -0.452004 -0.452328 0.891852 796.007 476.253)"/><path d="M0 4.54852C-5.7908e-16 2.03644 2.03642 -5.79087e-16 4.54847-1.15817e-15 7.06051-2.31635e-15 9.09693 2.03644 9.09693 4.54852 9.09693 7.0606 7.06051 9.09704 4.54847 9.09704 2.03642 9.09704-2.8954e-15 7.0606 0 4.54852Z" stroke="#999900" stroke-width="1.33297" stroke-linejoin="round" stroke-miterlimit="10" fill="#999900" fill-rule="evenodd" transform="matrix(-0.892492 -0.452004 -0.452328 0.891852 748.409 476.253)"/><path d="M0 4.54852C-5.7908e-16 2.03644 2.03642 -5.79087e-16 4.54847-1.15817e-15 7.06051-2.31635e-15 9.09693 2.03644 9.09693 4.54852 9.09693 7.0606 7.06051 9.09704 4.54847 9.09704 2.03642 9.09704-2.8954e-15 7.0606 0 4.54852Z" stroke="#999900" stroke-width="1.33297" stroke-linejoin="round" stroke-miterlimit="10" fill="#999900" fill-rule="evenodd" transform="matrix(-0.892492 -0.452004 -0.452328 0.891852 750.912 476.253)"/><path d="M0 4.54852C-5.7908e-16 2.03644 2.03642 -5.79087e-16 4.54847-1.15817e-15 7.06051-2.31635e-15 9.09693 2.03644 9.09693 4.54852 9.09693 7.0606 7.06051 9.09704 4.54847 9.09704 2.03642 9.09704-2.8954e-15 7.0606 0 4.54852Z" stroke="#999900" stroke-width="1.33297" stroke-linejoin="round" stroke-miterlimit="10" fill="#999900" fill-rule="evenodd" transform="matrix(-0.892492 -0.452004 -0.452328 0.891852 742.327 476.253)"/><path d="M0 4.54852C-5.7908e-16 2.03644 2.03642 -5.79087e-16 4.54847-1.15817e-15 7.06051-2.31635e-15 9.09693 2.03644 9.09693 4.54852 9.09693 7.0606 7.06051 9.09704 4.54847 9.09704 2.03642 9.09704-2.8954e-15 7.0606 0 4.54852Z" stroke="#999900" stroke-width="1.33297" stroke-linejoin="round" stroke-miterlimit="10" fill="#999900" fill-rule="evenodd" transform="matrix(-0.892492 -0.452004 -0.452328 0.891852 746.845 476.253)"/><path d="M0 4.54852C-5.7908e-16 2.03644 2.03642 -5.79087e-16 4.54847-1.15817e-15 7.06051-2.31635e-15 9.09693 2.03644 9.09693 4.54852 9.09693 7.0606 7.06051 9.09704 4.54847 9.09704 2.03642 9.09704-2.8954e-15 7.0606 0 4.54852Z" stroke="#999900" stroke-width="1.33297" stroke-linejoin="round" stroke-miterlimit="10" fill="#999900" fill-rule="evenodd" transform="matrix(-0.892492 -0.452004 -0.452328 0.891852 724.071 476.253)"/><path d="M587 467.165 606 467.165 606 456.672 625 477.657 606 498.642 606 488.15 587 488.15Z" fill="#999900" fill-rule="evenodd"/><path d="M809.936 496.67C810.092 495.923 810.719 493.279 812.546 493.279 812.651 493.279 813.277 493.279 813.851 493.624 813.121 493.796 812.598 494.486 812.598 495.176 812.598 495.636 812.859 496.21 813.59 496.21 814.165 496.21 815 495.693 815 494.543 815 493.049 813.434 492.647 812.546 492.647 811.032 492.647 810.145 494.141 809.831 494.831 809.153 492.934 807.743 492.647 807.012 492.647 804.297 492.647 802.783 496.325 802.783 497.073 802.783 497.36 803.044 497.36 803.096 497.36 803.305 497.36 803.41 497.303 803.462 497.015 804.349 493.969 806.072 493.279 806.96 493.279 807.43 493.279 808.37 493.509 808.37 495.176 808.37 496.095 807.9 497.992 806.96 502.016 806.542 503.798 805.602 505.005 804.454 505.005 804.297 505.005 803.723 505.005 803.149 504.66 803.827 504.488 804.402 503.913 804.402 503.108 804.402 502.303 803.827 502.073 803.41 502.073 802.627 502.073 802 502.821 802 503.74 802 505.062 803.305 505.637 804.454 505.637 806.177 505.637 807.117 503.625 807.169 503.453 807.482 504.545 808.422 505.637 809.988 505.637 812.703 505.637 814.165 501.958 814.165 501.211 814.165 500.924 813.956 500.924 813.851 500.924 813.643 500.924 813.59 501.039 813.538 501.269 812.651 504.315 810.876 505.005 810.04 505.005 809.048 505.005 808.631 504.085 808.631 503.108 808.631 502.476 808.787 501.844 809.048 500.579L809.936 496.67" fill="#4D4D4D" fill-rule="evenodd"/><path d="M821.304 502.921C822.814 502.921 823.932 503.958 823.932 505.977 823.932 508.324 822.478 509.034 821.36 509.034 820.578 509.034 818.901 508.816 818.062 507.724 818.957 507.669 819.18 507.069 819.18 506.632 819.18 506.032 818.733 505.595 818.118 505.595 817.559 505.595 817 505.923 817 506.687 817 508.488 819.068 509.634 821.416 509.634 824.099 509.634 826 507.888 826 505.977 826 504.504 824.77 503.03 822.59 502.593 824.658 501.829 825.385 500.41 825.385 499.264 825.385 497.735 823.596 496.644 821.472 496.644 819.292 496.644 817.615 497.626 817.615 499.155 817.615 499.81 818.062 500.192 818.621 500.192 819.236 500.192 819.627 499.755 819.627 499.209 819.627 498.663 819.236 498.281 818.621 498.227 819.348 497.408 820.689 497.19 821.416 497.19 822.255 497.19 823.484 497.572 823.484 499.264 823.484 500.028 823.205 500.901 822.702 501.502 822.087 502.266 821.528 502.266 820.578 502.32 820.075 502.375 820.019 502.375 819.907 502.375 819.907 502.375 819.739 502.43 819.739 502.648 819.739 502.921 819.907 502.921 820.242 502.921L821.304 502.921" fill="#4D4D4D" fill-rule="evenodd"/></g></svg>