<?xml version="1.0" encoding="UTF-8" standalone="no"?>
<!-- Created with Inkscape (http://www.inkscape.org/) -->

<svg
   xmlns:dc="http://purl.org/dc/elements/1.1/"
   xmlns:cc="http://creativecommons.org/ns#"
   xmlns:rdf="http://www.w3.org/1999/02/22-rdf-syntax-ns#"
   xmlns:svg="http://www.w3.org/2000/svg"
   xmlns="http://www.w3.org/2000/svg"
   xmlns:sodipodi="http://sodipodi.sourceforge.net/DTD/sodipodi-0.dtd"
   xmlns:inkscape="http://www.inkscape.org/namespaces/inkscape"
   id="svg2"
   version="1.1"
   inkscape:version="0.91 r13725"
   xml:space="preserve"
   width="297.00009mm"
   height="100mm"
   viewBox="0 0 1052.3625 354.33072"
   sodipodi:docname="bigField.svg"><metadata
     id="metadata8"><rdf:RDF><cc:Work
         rdf:about=""><dc:format>image/svg+xml</dc:format><dc:type
           rdf:resource="http://purl.org/dc/dcmitype/StillImage" /><dc:title></dc:title></cc:Work></rdf:RDF></metadata><defs
     id="defs6" /><sodipodi:namedview
     pagecolor="#ffffff"
     bordercolor="#666666"
     borderopacity="1"
     objecttolerance="10"
     gridtolerance="10"
     guidetolerance="10"
     inkscape:pageopacity="0"
     inkscape:pageshadow="2"
     inkscape:window-width="1703"
     inkscape:window-height="1008"
     id="namedview4"
     showgrid="false"
     units="mm"
     inkscape:zoom="0.31716168"
     inkscape:cx="526.18127"
     inkscape:cy="372.04999"
     inkscape:window-x="0"
     inkscape:window-y="0"
     inkscape:window-maximized="0"
     inkscape:current-layer="g10" /><g
     id="g10"
     inkscape:groupmode="layer"
     inkscape:label="bigField"
     transform="matrix(1.25,0,0,-1.25,0,354.33076)"><rect
       style="opacity:0.98000004;fill:#ffffff;fill-opacity:1;stroke:none;stroke-width:1.875;stroke-miterlimit:4;stroke-dasharray:3.75, 1.875;stroke-dashoffset:0;stroke-opacity:1;paint-order:markers stroke fill"
       id="rect4384"
       width="841.88977"
       height="283.46457"
       x="0.00012639564"
       y="-283.4646"
       transform="scale(1,-1)" /><g
       id="g12"
       transform="matrix(1.44,0,0,1.44,71.99897,365.38734)"><g
         id="g14"
         transform="translate(114.763,-226.183)"><g
           id="g16"><g
             id="g18"><g
               id="g20"><path
                 d="m 0,0 0,113.38728 56.69363,0 L 56.69363,0 0,0 Z"
                 style="fill:#e9f6ec;fill-opacity:1;fill-rule:nonzero;stroke:none"
                 id="path22"
                 inkscape:connector-curvature="0" /></g><g
               id="g24"><path
                 d="m 28.3468,113.38728 0,28.34682 198.42777,0 0,-28.34682 -198.42777,0 z"
                 style="fill:#e9f6ec;fill-opacity:1;fill-rule:nonzero;stroke:none"
                 id="path26"
                 inkscape:connector-curvature="0" /></g><g
               id="g28"><path
                 d="m 85.04045,85.04045 0,28.34683 113.38728,0 0,-28.34683 -113.38728,0 z"
                 style="fill:#e9f6ec;fill-opacity:1;fill-rule:nonzero;stroke:none"
                 id="path30"
                 inkscape:connector-curvature="0" /></g><g
               id="g32"><path
                 d="m 226.77457,85.04045 0,28.34683 28.34681,0 0,-28.34683 -28.34681,0 z"
                 style="fill:#e9f6ec;fill-opacity:1;fill-rule:nonzero;stroke:none"
                 id="path34"
                 inkscape:connector-curvature="0" /></g><g
               id="g36"><path
                 d="m 56.69363,56.69363 0,28.34682 85.04047,0 0,-28.34682 -85.04047,0 z"
                 style="fill:#e9f6ec;fill-opacity:1;fill-rule:nonzero;stroke:none"
                 id="path38"
                 inkscape:connector-curvature="0" /></g><g
               id="g40"><path
                 d="m 170.08092,56.69363 0,28.34682 85.04046,0 0,-28.34682 -85.04046,0 z"
                 style="fill:#e9f6ec;fill-opacity:1;fill-rule:nonzero;stroke:none"
                 id="path42"
                 inkscape:connector-curvature="0" /></g><g
               id="g44"><path
                 d="m 85.04045,28.3468 0,28.34683 170.08093,0 0,-28.34683 -170.08093,0 z"
                 style="fill:#e9f6ec;fill-opacity:1;fill-rule:nonzero;stroke:none"
                 id="path46"
                 inkscape:connector-curvature="0" /></g><g
               id="g48"><path
                 d="m 56.69363,0 0,28.3468 170.08094,0 0,-28.3468 -170.08094,0 z"
                 style="fill:#e9f6ec;fill-opacity:1;fill-rule:nonzero;stroke:none"
                 id="path50"
                 inkscape:connector-curvature="0" /></g><g
               id="g52"><path
                 d="m 226.77457,113.38728 0,28.34682 28.34681,0 0,-28.34682 -28.34681,0 z"
                 style="fill:#fff9e6;fill-opacity:1;fill-rule:nonzero;stroke:none"
                 id="path54"
                 inkscape:connector-curvature="0" /></g><g
               id="g56"><path
                 d="m 56.69363,28.3468 0,28.34683 28.34682,0 0,-28.34683 -28.34682,0 z"
                 style="fill:#fceff2;fill-opacity:1;fill-rule:nonzero;stroke:none"
                 id="path58"
                 inkscape:connector-curvature="0" /></g><g
               id="g60"><path
                 d="m 56.69363,85.04045 0,28.34683 28.34682,0 0,-28.34683 -28.34682,0 z"
                 style="fill:#fceff2;fill-opacity:1;fill-rule:nonzero;stroke:none"
                 id="path62"
                 inkscape:connector-curvature="0" /></g><g
               id="g64"><path
                 d="m 0,113.38728 0,28.34682 28.3468,0 0,-28.34682 -28.3468,0 z"
                 style="fill:#fceff2;fill-opacity:1;fill-rule:nonzero;stroke:none"
                 id="path66"
                 inkscape:connector-curvature="0" /></g><g
               id="g68"><path
                 d="m 141.7341,56.69363 0,28.34682 28.34682,0 0,-28.34682 -28.34682,0 z"
                 style="fill:#fceff2;fill-opacity:1;fill-rule:nonzero;stroke:none"
                 id="path70"
                 inkscape:connector-curvature="0" /></g><g
               id="g72"><path
                 d="m 198.42773,85.04045 0,28.34683 28.34684,0 0,-28.34683 -28.34684,0 z"
                 style="fill:#fceff2;fill-opacity:1;fill-rule:nonzero;stroke:none"
                 id="path74"
                 inkscape:connector-curvature="0" /></g><g
               id="g76"><path
                 d="m 226.77457,0 0,28.3468 28.34681,0 0,-28.3468 -28.34681,0 z"
                 style="fill:#fceff2;fill-opacity:1;fill-rule:nonzero;stroke:none"
                 id="path78"
                 inkscape:connector-curvature="0" /></g><path
               d="M 0,0 255.12138,0 M 0,28.3468 l 255.12138,0 M 0,56.69362 l 255.12138,0 M 0,85.04042 l 255.12138,0 M 0,113.38724 l 255.12138,0 M 0,141.73404 l 255.12138,0 M 0,0 0,141.7341 M 28.3468,0 l 0,141.7341 M 56.69362,0 l 0,141.7341 M 85.04042,0 l 0,141.7341 M 113.38724,0 l 0,141.7341 M 141.73404,0 l 0,141.7341 M 170.08086,0 l 0,141.7341 M 198.42766,0 l 0,141.7341 M 226.77448,0 l 0,141.7341 M 255.12128,0 l 0,141.7341"
               style="fill:none;stroke:#000000;stroke-width:0.3985;stroke-linecap:butt;stroke-linejoin:miter;stroke-miterlimit:10;stroke-dasharray:none;stroke-opacity:1"
               id="path80"
               inkscape:connector-curvature="0" /><g
               id="g82"><g
                 id="g84"><g
                   id="g86"
                   transform="scale(-1,-1)"><g
                     id="g88" /><g
                     id="g90"
                     transform="matrix(-1,0,0,-1,114.763,-226.183)"><g
                       id="g92" /><g
                       id="g94"
                       transform="translate(11.407,10.715)"><g
                         id="g96"><text
                           transform="matrix(1,0,0,-1,114.763,-226.183)"
                           style="font-variant:normal;font-weight:normal;font-size:9.96259975px;font-family:SFSS1000;-inkscape-font-specification:SFSS1000;writing-mode:lr-tb;fill:#000000;fill-opacity:1;fill-rule:nonzero;stroke:none"
                           id="text98"><tspan
                             x="0"
                             y="0"
                             id="tspan100">S</tspan></text>
</g></g><g
                       id="g102"
                       transform="translate(114.763,-226.183)" /></g></g></g></g><g
               id="g104"><g
                 id="g106"><g
                   id="g108"
                   transform="scale(-1,-1)"><g
                     id="g110" /><g
                     id="g112"
                     transform="matrix(-1,0,0,-1,114.763,-226.183)"><g
                       id="g114" /><g
                       id="g116"
                       transform="translate(237.628,124.102)"><g
                         id="g118"><text
                           transform="matrix(1,0,0,-1,114.763,-226.183)"
                           style="font-variant:normal;font-weight:normal;font-size:9.96259975px;font-family:SFSS1000;-inkscape-font-specification:SFSS1000;writing-mode:lr-tb;fill:#000000;fill-opacity:1;fill-rule:nonzero;stroke:none"
                           id="text120"><tspan
                             x="0"
                             y="0"
                             id="tspan122">G</tspan></text>
</g></g><g
                       id="g124"
                       transform="translate(114.763,-226.183)" /></g></g></g></g><g
               id="g126"><g
                 id="g128"><g
                   id="g130"
                   transform="scale(-1,-1)"><g
                     id="g132" /><g
                     id="g134"
                     transform="matrix(-1,0,0,-1,114.763,-226.183)"><g
                       id="g136" /><g
                       id="g138"
                       transform="translate(67.547,39.062)"><g
                         id="g140"><text
                           transform="matrix(1,0,0,-1,114.763,-226.183)"
                           style="font-variant:normal;font-weight:normal;font-size:9.96259975px;font-family:SFSS1000;-inkscape-font-specification:SFSS1000;writing-mode:lr-tb;fill:#000000;fill-opacity:1;fill-rule:nonzero;stroke:none"
                           id="text142"><tspan
                             x="0"
                             y="0"
                             id="tspan144">X</tspan></text>
</g></g><g
                       id="g146"
                       transform="translate(114.763,-226.183)" /></g></g></g></g><g
               id="g148"><g
                 id="g150"><g
                   id="g152"
                   transform="scale(-1,-1)"><g
                     id="g154" /><g
                     id="g156"
                     transform="matrix(-1,0,0,-1,114.763,-226.183)"><g
                       id="g158" /><g
                       id="g160"
                       transform="translate(209.281,95.755)"><g
                         id="g162"><text
                           transform="matrix(1,0,0,-1,114.763,-226.183)"
                           style="font-variant:normal;font-weight:normal;font-size:9.96259975px;font-family:SFSS1000;-inkscape-font-specification:SFSS1000;writing-mode:lr-tb;fill:#000000;fill-opacity:1;fill-rule:nonzero;stroke:none"
                           id="text164"><tspan
                             x="0"
                             y="0"
                             id="tspan166">X</tspan></text>
</g></g><g
                       id="g168"
                       transform="translate(114.763,-226.183)" /></g></g></g></g><g
               id="g170"><g
                 id="g172"><g
                   id="g174"
                   transform="scale(-1,-1)"><g
                     id="g176" /><g
                     id="g178"
                     transform="matrix(-1,0,0,-1,114.763,-226.183)"><g
                       id="g180" /><g
                       id="g182"
                       transform="translate(67.547,95.755)"><g
                         id="g184"><text
                           transform="matrix(1,0,0,-1,114.763,-226.183)"
                           style="font-variant:normal;font-weight:normal;font-size:9.96259975px;font-family:SFSS1000;-inkscape-font-specification:SFSS1000;writing-mode:lr-tb;fill:#000000;fill-opacity:1;fill-rule:nonzero;stroke:none"
                           id="text186"><tspan
                             x="0"
                             y="0"
                             id="tspan188">X</tspan></text>
</g></g><g
                       id="g190"
                       transform="translate(114.763,-226.183)" /></g></g></g></g><g
               id="g192"><g
                 id="g194"><g
                   id="g196"
                   transform="scale(-1,-1)"><g
                     id="g198" /><g
                     id="g200"
                     transform="matrix(-1,0,0,-1,114.763,-226.183)"><g
                       id="g202" /><g
                       id="g204"
                       transform="translate(237.628,10.715)"><g
                         id="g206"><text
                           transform="matrix(1,0,0,-1,114.763,-226.183)"
                           style="font-variant:normal;font-weight:normal;font-size:9.96259975px;font-family:SFSS1000;-inkscape-font-specification:SFSS1000;writing-mode:lr-tb;fill:#000000;fill-opacity:1;fill-rule:nonzero;stroke:none"
                           id="text208"><tspan
                             x="0"
                             y="0"
                             id="tspan210">X</tspan></text>
</g></g><g
                       id="g212"
                       transform="translate(114.763,-226.183)" /></g></g></g></g><g
               id="g214"><g
                 id="g216"><g
                   id="g218"
                   transform="scale(-1,-1)"><g
                     id="g220" /><g
                     id="g222"
                     transform="matrix(-1,0,0,-1,114.763,-226.183)"><g
                       id="g224" /><g
                       id="g226"
                       transform="translate(10.853,124.102)"><g
                         id="g228"><text
                           transform="matrix(1,0,0,-1,114.763,-226.183)"
                           style="font-variant:normal;font-weight:normal;font-size:9.96259975px;font-family:SFSS1000;-inkscape-font-specification:SFSS1000;writing-mode:lr-tb;fill:#000000;fill-opacity:1;fill-rule:nonzero;stroke:none"
                           id="text230"><tspan
                             x="0"
                             y="0"
                             id="tspan232">X</tspan></text>
</g></g><g
                       id="g234"
                       transform="translate(114.763,-226.183)" /></g></g></g></g><g
               id="g236"><g
                 id="g238"><g
                   id="g240"
                   transform="scale(-1,-1)"><g
                     id="g242" /><g
                     id="g244"
                     transform="matrix(-1,0,0,-1,114.763,-226.183)"><g
                       id="g246" /><g
                       id="g248"
                       transform="translate(152.587,67.409)"><g
                         id="g250"><text
                           transform="matrix(1,0,0,-1,114.763,-226.183)"
                           style="font-variant:normal;font-weight:normal;font-size:9.96259975px;font-family:SFSS1000;-inkscape-font-specification:SFSS1000;writing-mode:lr-tb;fill:#000000;fill-opacity:1;fill-rule:nonzero;stroke:none"
                           id="text252"><tspan
                             x="0"
                             y="0"
                             id="tspan254">X</tspan></text>
</g></g><g
                       id="g256"
                       transform="translate(114.763,-226.183)" /></g></g></g></g></g></g></g></g></g></svg>